<?xml version="1.0" encoding="UTF-8"?>
<svg width="23px" height="23px" viewBox="0 0 23 23" version="1.1" xmlns="http://www.w3.org/2000/svg" xmlns:xlink="http://www.w3.org/1999/xlink">
    <!-- Generator: Sketch 44.1 (41455) - http://www.bohemiancoding.com/sketch -->
    <title>Help_service icon</title>
    <desc>Created with Sketch.</desc>
    <defs></defs>
    <g id="Page-1" stroke="none" stroke-width="1" fill="none" fill-rule="evenodd">
        <g id="02-check-preferences" transform="translate(-617.000000, -104.000000)" fill="#FFFFFF">
            <g id="Help_service-icon" transform="translate(616.000000, 103.000000)">
                <path d="M12.5,24 C6.14872538,24 1,18.8512746 1,12.5 C1,6.14872538 6.14872538,1 12.5,1 C18.8512746,1 24,6.14872538 24,12.5 C24,18.8512746 18.8512746,24 12.5,24 Z M9,9.44915254 L10.9855865,9.44915254 C11.0531809,8.39830508 11.7544732,7.72881356 12.8444334,7.72881356 C13.9090457,7.72881356 14.6187873,8.38135593 14.6187873,9.27966102 C14.6187873,10.1186441 14.2639165,10.5762712 13.2162028,11.2118644 C12.0501988,11.8983051 11.5601392,12.6610169 11.6361829,13.9152542 L11.6446322,14.5169492 L13.6048708,14.5169492 L13.6048708,14.0254237 C13.6048708,13.1779661 13.917495,12.7372881 15.0243539,12.0932203 C16.1734592,11.4067797 16.8156064,10.5 16.8156064,9.20338983 C16.8156064,7.33898305 15.2693837,6 12.9542744,6 C10.444831,6 9.06759443,7.45762712 9,9.44915254 Z M12.6500994,18.5 C13.334493,18.5 13.8752485,17.9661017 13.8752485,17.2966102 C13.8752485,16.6271186 13.334493,16.1016949 12.6500994,16.1016949 C11.9657058,16.1016949 11.416501,16.6271186 11.416501,17.2966102 C11.416501,17.9661017 11.9657058,18.5 12.6500994,18.5 Z" id="Combined-Shape"></path>
            </g>
        </g>
    </g>
</svg>