<?xml version="1.0" encoding="UTF-8"?>
<svg width="18px" height="21px" viewBox="0 0 18 21" version="1.1" xmlns="http://www.w3.org/2000/svg" xmlns:xlink="http://www.w3.org/1999/xlink">
    <!-- Generator: Sketch 44 (41411) - http://www.bohemiancoding.com/sketch -->
    <title>android-seeklogo.com</title>
    <desc>Created with Sketch.</desc>
    <defs></defs>
    <g id="Symbols" stroke="none" stroke-width="1" fill="none" fill-rule="evenodd">
        <g id="footer" transform="translate(-556.000000, -22.000000)" fill-rule="nonzero">
            <g id="android-seeklogo.com" transform="translate(556.000000, 22.000000)">
                <path d="M5.51172769,0.0598936913 C5.41298386,0.0608286687 5.3104866,0.084465616 5.21710562,0.135825841 C4.92056124,0.298929046 4.81179932,0.677057269 4.9760512,0.971078281 L5.64564679,2.17080408 C4.03243478,3.1612298 2.96343816,4.85290713 2.96343816,6.78367256 C2.96343816,6.79177749 2.9634155,6.80395258 2.96343816,6.81594366 C2.96344613,6.82017503 2.96339835,6.82258679 2.96343816,6.827333 C2.96344063,6.8336429 2.96343816,6.84285723 2.96343816,6.84441792 L2.96343816,7.14245093 C2.65360778,6.78873223 2.19816096,6.56536793 1.68929342,6.56536793 C0.757024734,6.56536793 0,7.31652453 0,8.24156658 L0,13.4049419 C0,14.329984 0.757024734,15.0811406 1.68929342,15.0811406 C2.19816096,15.0811406 2.65360778,14.8577763 2.96343816,14.5040576 L2.96343816,15.2273099 C2.96343816,16.202414 3.76757976,17.0003219 4.75030184,17.0003219 L5.20371368,17.0003219 L5.20371368,19.2972652 C5.20371368,20.2223115 5.96073902,20.9734639 6.89300758,20.9734639 C7.82527648,20.9734639 8.58230156,20.2223115 8.58230156,19.2972652 L8.58230156,17.0003219 L9.36668538,17.0003219 L9.36668538,19.2972652 C9.36668538,20.2223115 10.1237104,20.9734639 11.0559793,20.9734639 C11.9882476,20.9734639 12.7452739,20.2223115 12.7452739,19.2972652 L12.7452739,17.0003219 L13.1986854,17.0003219 C14.1814075,17.0003219 14.9855491,16.202414 14.9855491,15.2273099 L14.9855491,14.5040576 C15.2953804,14.8577763 15.7508263,15.0811406 16.2596942,15.0811406 C17.1919631,15.0811406 17.9489881,14.329984 17.9489881,13.4049419 L17.9489881,8.24156658 C17.9489881,7.31652453 17.1919631,6.56536793 16.2596942,6.56536793 C15.7508263,6.56536793 15.2953804,6.78873223 14.9855491,7.14245093 L14.9855491,6.85011289 L14.9855491,6.84441912 C14.9855883,6.83528211 14.9855593,6.82619485 14.9855491,6.8273348 C14.9856699,6.80913871 14.9855491,6.79463997 14.9855491,6.78367376 C14.9855491,4.85324637 13.9141685,3.16320105 12.3014271,2.1727034 L12.9729364,0.971076488 C13.1371883,0.67705547 13.0284266,0.298927248 12.731882,0.135824043 C12.6385007,0.0844638174 12.536004,0.0608280693 12.4372601,0.0598918933 C12.218272,0.057812168 12.0033308,0.172327716 11.8901042,0.375009833 L11.1879851,1.63358347 C10.5014471,1.38219802 9.75445791,1.2444315 8.97449379,1.2444315 C8.19532448,1.2444315 7.44696302,1.38078777 6.76100175,1.63168474 L6.05888275,0.375009833 C5.94565683,0.172327117 5.73071527,0.0578169627 5.51172769,0.0598918933 L5.51172769,0.0598936913 Z" id="Shape" fill="#E3E3E3"></path>
                <path d="M1.68933322,7.00197656 C0.993635156,7.00197656 0.440059144,7.55126142 0.440059144,8.24156658 L0.440059144,13.4049419 C0.440059144,14.0952471 0.993635156,14.644532 1.68933322,14.644532 C2.38503123,14.644532 2.93860728,14.0952471 2.93860728,13.4049419 L2.93860728,8.24156658 C2.93860728,7.55126142 2.38503123,7.00197656 1.68933322,7.00197656 L1.68933322,7.00197656 Z M16.2597341,7.00197656 C15.5640358,7.00197656 15.0104597,7.55126142 15.0104597,8.24156658 L15.0104597,13.4049419 C15.0104597,14.0952471 15.5640358,14.644532 16.2597341,14.644532 C16.9554322,14.644532 17.5090077,14.0952471 17.5090077,13.4049419 L17.5090077,8.24156658 C17.5090077,7.55126142 16.9554322,7.00197656 16.2597341,7.00197656 L16.2597341,7.00197656 Z" id="Shape" fill="#FFFFFF"></path>
                <path d="M6.89300758,12.8942843 C6.1973094,12.8942843 5.64373365,13.4435691 5.64373365,14.1338743 L5.64373365,19.2972532 C5.64373365,19.9875602 6.1973094,20.5368354 6.89300758,20.5368354 C7.58870578,20.5368354 8.14228186,19.9875602 8.14228186,19.2972532 L8.14228186,14.1338743 C8.14228186,13.4435691 7.58870578,12.8942843 6.89300758,12.8942843 L6.89300758,12.8942843 Z M11.0559793,12.8942843 C10.3602812,12.8942843 9.80670502,13.4435691 9.80670502,14.1338743 L9.80670502,19.2972532 C9.80670502,19.9875602 10.3602812,20.5368354 11.0559793,20.5368354 C11.7516775,20.5368354 12.305253,19.9875602 12.305253,19.2972532 L12.305253,14.1338743 C12.305253,13.4435691 11.7516775,12.8942843 11.0559793,12.8942843 L11.0559793,12.8942843 Z" id="Shape" fill="#FFFFFF"></path>
                <path d="M5.51555396,0.49650295 C5.48602194,0.496802622 5.4585035,0.504362753 5.43137624,0.519282235 C5.34229351,0.568279245 5.31299905,0.669852549 5.36250352,0.758468623 L6.24254316,2.33595585 C4.54938705,3.21012253 3.40575022,4.87138972 3.40345812,6.77797759 L14.5455294,6.77797759 C14.5432401,4.87138972 13.3996005,3.21012253 11.7064438,2.33595585 L12.5864843,0.758468623 C12.6359885,0.669852549 12.6066938,0.568279245 12.5176113,0.519282235 C12.4904839,0.504362753 12.4629656,0.496782244 12.4334336,0.49650295 C12.3702131,0.495897612 12.3102876,0.52724093 12.2765563,0.587621289 L11.3850375,2.18219343 C10.6557396,1.8612085 9.83771937,1.68104256 8.97449379,1.68104256 C8.11126751,1.68104256 7.29324661,1.8612085 6.56394946,2.18219343 L5.6724306,0.587621289 C5.63869951,0.52724093 5.57877358,0.495901208 5.51555396,0.49650295 L5.51555396,0.49650295 Z M3.40345812,7.21458628 L3.40345812,15.2273099 C3.40345812,15.9676771 4.00415044,16.5637126 4.75030184,16.5637126 L13.1986854,16.5637126 C13.9448374,16.5637126 14.5455294,15.9676771 14.5455294,15.2273099 L14.5455294,7.21458628 L3.40345812,7.21458628 L3.40345812,7.21458628 Z" id="Shape" fill="#FFFFFF"></path>
                <path d="M6.40323121,3.83181595 C6.14887853,3.83181595 5.93834044,4.04072166 5.93834044,4.29310322 C5.93834044,4.54548418 6.14887853,4.75438988 6.40323121,4.75438988 C6.65758389,4.75438988 6.86812168,4.54548418 6.86812168,4.29310322 C6.86812168,4.04072166 6.65758389,3.83181595 6.40323121,3.83181595 L6.40323121,3.83181595 Z M11.5457255,3.83181595 C11.2913728,3.83181595 11.0808345,4.04072166 11.0808345,4.29310322 C11.0808345,4.54548418 11.2913728,4.75438988 11.5457255,4.75438988 C11.8000776,4.75438988 12.0106159,4.54548418 12.0106159,4.29310322 C12.0106159,4.04072166 11.8000776,3.83181595 11.5457255,3.83181595 L11.5457255,3.83181595 Z" id="Shape" fill="#FFFFFF"></path>
            </g>
        </g>
    </g>
</svg>