<?xml version="1.0" encoding="UTF-8"?>
<svg width="18px" height="21px" viewBox="0 0 18 21" version="1.1" xmlns="http://www.w3.org/2000/svg" xmlns:xlink="http://www.w3.org/1999/xlink">
    <!-- Generator: Sketch 44 (41411) - http://www.bohemiancoding.com/sketch -->
    <title>Shape</title>
    <desc>Created with Sketch.</desc>
    <defs></defs>
    <g id="Symbols" stroke="none" stroke-width="1" fill="none" fill-rule="evenodd">
        <g id="footer" transform="translate(-489.000000, -21.000000)" fill-rule="nonzero" fill="#FFFFFF">
            <path d="M506.449827,37.2020363 C506.141221,37.91498 505.775931,38.5712408 505.3527,39.1745978 C504.775795,39.9971282 504.303438,40.5664755 503.939409,40.8826395 C503.3751,41.4016021 502.770483,41.6673814 502.12304,41.6824968 C501.658241,41.6824968 501.097711,41.550237 500.445229,41.2819384 C499.790605,41.0148994 499.189012,40.8826395 498.638937,40.8826395 C498.062032,40.8826395 497.443308,41.0148994 496.781504,41.2819384 C496.118694,41.550237 495.584742,41.6900545 495.176499,41.7039103 C494.555634,41.7303623 493.936784,41.4570252 493.319067,40.8826395 C492.924807,40.5387639 492.431666,39.9492627 491.840906,39.1141361 C491.207066,38.2223267 490.685962,37.1881805 490.27772,36.0091782 C489.840506,34.7357046 489.621333,33.5025388 489.621333,32.308673 C489.621333,30.941106 489.916839,29.7615998 490.508734,28.7731777 C490.973911,27.9792406 491.592761,27.3529587 492.3673,26.8931982 C493.141839,26.4334377 493.978729,26.1991488 494.879985,26.1841593 C495.373126,26.1841593 496.019814,26.336699 496.82345,26.6364881 C497.624819,26.9372848 498.139372,27.0898245 498.36497,27.0898245 C498.533633,27.0898245 499.105247,26.9114626 500.074271,26.5558725 C500.990643,26.2261046 501.764049,26.089562 502.397636,26.1433477 C504.114495,26.2819056 505.404344,26.9586983 506.262144,28.1780083 C504.72667,29.108362 503.96712,30.4114367 503.982236,32.0830755 C503.996091,33.3851424 504.468448,34.4686656 505.396786,35.3289846 C505.817499,35.7282834 506.287336,36.0368898 506.810078,36.2560633 C506.696712,36.5848236 506.577048,36.899728 506.449827,37.2020363 L506.449827,37.2020363 Z M502.512262,21.7074776 C502.512262,22.7280326 502.139415,23.6809208 501.39624,24.5629052 C500.499392,25.6114111 499.41461,26.2172873 498.238252,26.1216823 C498.223263,25.9992474 498.214572,25.8703885 498.214572,25.7349796 C498.214572,24.7552489 498.641078,23.706743 499.398486,22.8494471 C499.776624,22.4153828 500.257546,22.0544645 500.840749,21.7665537 C501.422692,21.4829381 501.973145,21.3260905 502.490848,21.2992355 C502.505964,21.4356647 502.512262,21.5721065 502.512262,21.707465 L502.512262,21.7074776 Z" id="Shape"></path>
        </g>
    </g>
</svg>