<?xml version="1.0" encoding="UTF-8"?>
<svg width="26px" height="20px" viewBox="0 0 26 20" version="1.1" xmlns="http://www.w3.org/2000/svg" xmlns:xlink="http://www.w3.org/1999/xlink">
    <!-- Generator: Sketch 43.2 (39069) - http://www.bohemiancoding.com/sketch -->
    <title>Fill 5 + Path 319</title>
    <desc>Created with Sketch.</desc>
    <defs></defs>
    <g id="Page-1" stroke="none" stroke-width="1" fill="none" fill-rule="evenodd">
        <g id="Desktop-Copy-3" transform="translate(-30.000000, -30.000000)" fill="#FFFFFF">
            <g id="logo" transform="translate(30.000000, 30.000000)">
                <g id="Fill-5-+-Path-319">
                    <path d="M10.2234468,19.7561992 C10.5510785,20.0812669 11.081609,20.0812669 11.4100723,19.7561992 C11.7368725,19.4311315 11.7368725,18.897687 11.4100723,18.5726193 L2.0276649,10.0041675 L11.4100723,1.4273807 C11.7368725,1.10231298 11.7368725,0.577203584 11.4100723,0.243800792 C11.081609,-0.0812669306 10.5510785,-0.0812669306 10.2234468,0.243800792 L0.23899537,9.36236716 C0.0643693354,9.53740363 -0.0104703939,9.77078558 0.00117134174,10.0041675 C-0.0104703939,10.2292144 0.0643693354,10.4625964 0.23899537,10.6376328 L10.2234468,19.7561992 L10.2234468,19.7561992 Z" id="Fill-5"></path>
                    <path d="M1.79310345,10.9090909 L24.7243272,10.9090909 C25.2194791,10.9090909 25.6208789,10.502077 25.6208789,10 C25.6208789,9.49792295 25.2194791,9.09090909 24.7243272,9.09090909 L1.79310345,9.09090909 C1.2979516,9.09090909 0.896551724,9.49792295 0.896551724,10 C0.896551724,10.502077 1.2979516,10.9090909 1.79310345,10.9090909 L1.79310345,10.9090909 Z" id="Shape" fill-rule="nonzero"></path>
                </g>
            </g>
        </g>
    </g>
</svg>