<svg xmlns="http://www.w3.org/2000/svg" xmlns:xlink="http://www.w3.org/1999/xlink" version="1.1" x="0px" y="0px" viewBox="0 0 66 82.5" style="enable-background:new 0 0 66 66;" xml:space="preserve" fill="white"><g><path d="M55.6,9.8h-6.4V8c0-1.1-0.9-2-2-2s-2,0.9-2,2v1.8H35V8c0-1.1-0.9-2-2-2s-2,0.9-2,2v1.8H20.8V8c0-1.1-0.9-2-2-2s-2,0.9-2,2   v1.8h-6.4c-4.1,0-7.5,3.4-7.5,7.5v37.2c0,4.1,3.4,7.5,7.5,7.5h45.2c4.1,0,7.5-3.4,7.5-7.5V17.3C63.1,13.2,59.7,9.8,55.6,9.8z    M59.1,54.5c0,1.9-1.6,3.5-3.5,3.5H10.4c-1.9,0-3.5-1.6-3.5-3.5V29.7h52.2V54.5z M59.1,25.7H6.9v-8.4c0-1.9,1.6-3.5,3.5-3.5h6.4   v1.8c0,1.1,0.9,2,2,2s2-0.9,2-2v-1.8H31v1.8c0,1.1,0.9,2,2,2s2-0.9,2-2v-1.8h10.2v1.8c0,1.1,0.9,2,2,2s2-0.9,2-2v-1.8h6.4   c1.9,0,3.5,1.6,3.5,3.5V25.7z"/></g></svg>