<?xml version="1.0" encoding="UTF-8"?>
<svg width="57px" height="53px" viewBox="0 0 57 53" version="1.1" xmlns="http://www.w3.org/2000/svg" xmlns:xlink="http://www.w3.org/1999/xlink">
    <!-- Generator: Sketch 44.1 (41455) - http://www.bohemiancoding.com/sketch -->
    <title>Group</title>
    <desc>Created with Sketch.</desc>
    <defs></defs>
    <g id="Page-1" stroke="none" stroke-width="1" fill="none" fill-rule="evenodd">
        <g id="noun_947783_cc" transform="translate(-1.000000, -1.000000)" fill-rule="nonzero" fill="#FFFFFF">
            <g id="Group" transform="translate(0.000000, 0.637820)">
                <path d="M46.6026131,0.694146618 C46.4124805,0.713338668 46.230145,0.793929284 46.0938219,0.919053452 L3.06437155,41.077434 C2.93541721,41.198264 2.8495619,41.3584376 2.82342829,41.5272477 L1.00290144,52.2727964 C0.928356406,52.7681912 1.46499497,53.2553494 1.99357925,53.1724237 L13.5074451,51.4731276 C13.6882383,51.4483379 13.8598632,51.3686109 13.9893317,51.2482608 L56.9920489,11.1148699 C57.3052238,10.8192483 57.3052238,10.2859572 56.9920489,9.99033571 L47.2989666,0.919093435 C47.1032644,0.66758962 46.6993503,0.691123871 46.6026131,0.694146618 L46.6026131,0.694146618 Z M46.683156,2.61838951 L55.171265,10.540108 L12.9451014,49.9487991 L2.90405689,51.4231483 L4.4838115,42.002091 L46.683156,2.61838951 Z M21.6112857,50.9826 C21.2759177,50.9826 21.004065,51.4722719 21.004065,52.07635 C21.004065,52.6804281 21.2759177,53.1701 21.6112857,53.1701 L55.6156443,53.1701 C55.9510123,53.1701 56.222865,52.6804281 56.222865,52.07635 C56.222865,51.4722719 55.9510123,50.9826 55.6156443,50.9826 L21.6112857,50.9826 Z" id="Shape"></path>
            </g>
        </g>
    </g>
</svg>