<?xml version="1.0" encoding="UTF-8"?>
<svg width="36px" height="36px" viewBox="0 0 36 36" version="1.1" xmlns="http://www.w3.org/2000/svg" xmlns:xlink="http://www.w3.org/1999/xlink">
    <!-- Generator: Sketch 44.1 (41455) - http://www.bohemiancoding.com/sketch -->
    <title>Group 4</title>
    <desc>Created with Sketch.</desc>
    <defs>
        <circle id="path-1" cx="13" cy="13" r="13"></circle>
    </defs>
    <g id="Page-1" stroke="none" stroke-width="1" fill="none" fill-rule="evenodd">
        <g id="00-Profile-settings" transform="translate(-494.000000, -173.000000)">
            <g id="Group-4" transform="translate(499.000000, 178.000000)">
                <g id="Oval-2">
                    <use fill="#FFFFFF" fill-rule="evenodd" xlink:href="#path-1"></use>
                    <circle stroke="#2F3F54" stroke-width="5" cx="13" cy="13" r="15.5"></circle>
                </g>
                <g id="edit-line" transform="translate(8.000000, 8.000000)" fill-rule="nonzero" fill="#2F3F54">
                    <g id="Group">
                        <path d="M0.695785568,6.83934285 L0.567881058,8.62104036 C0.562809954,8.69349606 0.587602018,8.76476396 0.636622689,8.81583929 C0.681135712,8.86275733 0.741425504,8.88888889 0.803405663,8.88888889 C0.809603679,8.88888889 0.815238239,8.88888889 0.821436255,8.88829499 L2.51293115,8.75347988 C2.56927675,8.74932258 2.62224161,8.72319102 2.66224699,8.68102418 L8.93069491,2.07211421 C9.0231017,1.97471474 9.0231017,1.81733146 8.93069491,1.719932 L7.36823144,0.073049598 C7.27582466,-0.024349866 7.12650882,-0.024349866 7.03410204,0.073049598 L0.763963743,6.68195957 C0.723958368,6.72412641 0.69972976,6.77995293 0.695785568,6.83934285 Z" id="Shape"></path>
                        <path d="M3.42933333,9.17725118 C3.42933333,9.33691717 3.492,9.46561347 3.569,9.46561347 L8.86033333,9.46561347 C8.93766667,9.46561347 9,9.33622896 9,9.17725118 C9,9.01758519 8.93733333,8.88888889 8.86033333,8.88888889 L3.569,8.88888889 C3.49166667,8.88888889 3.42933333,9.0182734 3.42933333,9.17725118 Z" id="Shape"></path>
                    </g>
                </g>
            </g>
        </g>
    </g>
</svg>