<?xml version="1.0" encoding="UTF-8"?>
<svg width="512px" height="336px" viewBox="0 0 512 336" version="1.1" xmlns="http://www.w3.org/2000/svg" xmlns:xlink="http://www.w3.org/1999/xlink">
    <!-- Generator: Sketch 44.1 (41455) - http://www.bohemiancoding.com/sketch -->
    <title>en</title>
    <desc>Created with Sketch.</desc>
    <defs></defs>
    <g id="Page-1" stroke="none" stroke-width="1" fill="none" fill-rule="evenodd">
        <g id="en" fill-rule="nonzero">
            <path d="M503.172,335.725 L8.828,335.725 C3.953,335.725 0,331.772 0,326.897 L0,9.104 C0,4.229 3.953,0.276 8.828,0.276 L503.173,0.276 C508.048,0.276 512.001,4.229 512.001,9.104 L512.001,326.897 C512,331.772 508.047,335.725 503.172,335.725 Z" id="Shape" fill="#41479B"></path>
            <path d="M512,9.104 C512,4.229 508.047,0.276 503.172,0.276 L463.677,0.276 L300.137,107.423 L300.137,0.276 L211.861,0.276 L211.861,107.423 L48.322,0.276 L8.828,0.276 C3.953,0.276 0,4.229 0,9.104 L0,31.935 L140.309,123.862 L0,123.862 L0,212.138 L140.309,212.138 L0,304.066 L0,326.897 C0,331.772 3.953,335.725 8.828,335.725 L48.323,335.725 L211.863,228.578 L211.863,335.725 L300.139,335.725 L300.139,228.578 L463.679,335.725 L503.174,335.725 C508.049,335.725 512.002,331.772 512.002,326.897 L512.002,304.066 L371.693,212.139 L512,212.139 L512,123.863 L371.691,123.863 L512,31.935 L512,9.104 Z" id="Shape" fill="#F5F5F5"></path>
            <g id="Group" fill="#FF4B55">
                <polygon id="Shape" points="512 141.518 282.483 141.518 282.483 0.276 229.517 0.276 229.517 141.518 0 141.518 0 194.483 229.517 194.483 229.517 335.725 282.483 335.725 282.483 194.483 512 194.483"></polygon>
                <path d="M178.948,212.138 L0.25,328.135 C0.875,332.398 4.39,335.725 8.827,335.725 L20.986,335.725 L211.376,212.139 L178.948,212.139 L178.948,212.138 Z" id="Shape"></path>
                <path d="M346.388,212.138 L313.96,212.138 L504.073,335.542 C508.504,335.07 512.001,331.452 512.001,326.896 L512.001,319.638 L346.388,212.138 Z" id="Shape"></path>
                <path d="M0,18.849 L161.779,123.863 L194.207,123.863 L5.143,1.137 C2.123,2.54 0,5.555 0,9.104 L0,18.849 Z" id="Shape"></path>
                <path d="M332.566,123.863 L511.693,7.586 C510.949,3.464 507.509,0.277 503.172,0.277 L490.525,0.277 L300.138,123.863 L332.566,123.863 Z" id="Shape"></path>
            </g>
        </g>
    </g>
</svg>