<?xml version="1.0" encoding="UTF-8"?>
<svg width="512px" height="336px" viewBox="0 0 512 336" version="1.1" xmlns="http://www.w3.org/2000/svg" xmlns:xlink="http://www.w3.org/1999/xlink">
    <!-- Generator: Sketch 44.1 (41455) - http://www.bohemiancoding.com/sketch -->
    <title>es</title>
    <desc>Created with Sketch.</desc>
    <defs></defs>
    <g id="Page-1" stroke="none" stroke-width="1" fill="none" fill-rule="evenodd">
        <g id="es" fill-rule="nonzero">
            <path d="M8.828,335.725 L503.173,335.725 C508.048,335.725 512.001,331.772 512.001,326.897 L512.001,9.104 C512.001,4.229 508.048,0.276 503.173,0.276 L8.828,0.276 C3.953,0.277 0,4.229 0,9.104 L0,326.897 C0,331.773 3.953,335.725 8.828,335.725 Z" id="Shape" fill="#C8414B"></path>
            <rect id="Rectangle-path" fill="#FFD250" x="0" y="70.901" width="512" height="194.21"></rect>
            <path d="M216.276,168.001 L223.761,134.32 C224.451,131.218 222.09,128.276 218.912,128.276 L213.64,128.276 C210.463,128.276 208.103,131.218 208.791,134.32 L216.276,168.001 Z" id="Shape" fill="#C8414B"></path>
            <rect id="Rectangle-path" fill="#F5F5F5" x="207.45" y="150.341" width="17.655" height="75.03"></rect>
            <rect id="Rectangle-path" fill="#FAB446" x="203.03" y="141.521" width="26.483" height="8.828"></rect>
            <g id="Group" transform="translate(76.000000, 128.000000)" fill="#C8414B">
                <rect id="Rectangle-path" x="109.38" y="40.001" width="44.14" height="8.828"></rect>
                <polygon id="Shape" points="153.517 75.311 127.034 66.484 127.034 57.656 153.517 66.484"></polygon>
                <path d="M7.862,40.001 L15.347,6.32 C16.037,3.218 13.676,0.276 10.498,0.276 L5.226,0.276 C2.049,0.276 -0.311,3.218 0.377,6.32 L7.862,40.001 Z" id="Shape"></path>
            </g>
            <path d="M114.759,141.518 C109.884,141.518 105.931,145.471 105.931,150.346 L105.931,207.725 C105.931,218.45 115.941,238.622 150.069,238.622 C184.197,238.622 194.207,218.451 194.207,207.725 L194.207,150.346 C194.207,145.471 190.254,141.518 185.379,141.518 L114.759,141.518 L114.759,141.518 Z" id="Shape" fill="#F5F5F5"></path>
            <g id="Group" transform="translate(105.000000, 141.000000)" fill="#C8414B">
                <path d="M45.069,44.656 L0.931,44.656 L0.931,9.346 C0.931,4.471 4.884,0.518 9.759,0.518 L45.069,0.518 L45.069,44.656 Z" id="Shape"></path>
                <path d="M45.069,44.656 L89.207,44.656 L89.207,66.725 C89.207,78.914 79.327,88.794 67.138,88.794 L67.138,88.794 C54.949,88.794 45.069,78.914 45.069,66.725 L45.069,44.656 L45.069,44.656 Z" id="Shape"></path>
            </g>
            <path d="M105.931,185.656 L150.069,185.656 L150.069,207.725 C150.069,219.914 140.189,229.794 128,229.794 L128,229.794 C115.811,229.794 105.931,219.914 105.931,207.725 L105.931,185.656 L105.931,185.656 Z" id="Shape" fill="#FAB446"></path>
            <g id="Group" transform="translate(114.000000, 185.000000)" fill="#C8414B">
                <path d="M27.241,40.281 L27.241,0.656 L18.413,0.656 L18.413,44.349 C21.697,43.683 24.664,42.229 27.241,40.281 Z" id="Shape"></path>
                <path d="M9.586,44.349 L9.586,0.656 L0.758,0.656 L0.758,40.281 C3.336,42.229 6.303,43.683 9.586,44.349 Z" id="Shape"></path>
            </g>
            <rect id="Rectangle-path" fill="#FFB441" x="114.76" y="168.001" width="26.483" height="8.828"></rect>
            <g id="Group" transform="translate(114.000000, 150.000000)" fill="#FAB446">
                <rect id="Rectangle-path" x="0.76" y="0.341" width="26.483" height="8.828"></rect>
                <rect id="Rectangle-path" x="5.17" y="5.591" width="17.655" height="15.992"></rect>
            </g>
            <rect id="Rectangle-path" fill="#F5F5F5" x="75.03" y="150.341" width="17.655" height="75.03"></rect>
            <g id="Group" transform="translate(70.000000, 141.000000)" fill="#FAB446">
                <rect id="Rectangle-path" x="0.62" y="79.971" width="26.483" height="8.828"></rect>
                <rect id="Rectangle-path" x="0.62" y="0.521" width="26.483" height="8.828"></rect>
            </g>
            <rect id="Rectangle-path" fill="#5064AA" x="66.21" y="229.791" width="35.31" height="8.828"></rect>
            <rect id="Rectangle-path" fill="#FAB446" x="207.45" y="220.971" width="26.483" height="8.828"></rect>
            <rect id="Rectangle-path" fill="#5064AA" x="198.62" y="229.791" width="35.31" height="8.828"></rect>
            <rect id="Rectangle-path" fill="#FAB446" x="123.59" y="132.691" width="52.966" height="8.828"></rect>
            <rect id="Rectangle-path" fill="#FFB441" x="145.66" y="106.211" width="8.828" height="26.483"></rect>
            <g id="Group" transform="translate(110.000000, 92.000000)" fill="#F5F5F5">
                <path d="M31.241,27.449 C23.939,27.449 18,21.509 18,14.208 C18,6.906 23.94,0.967 31.241,0.967 C38.543,0.967 44.482,6.907 44.482,14.208 C44.483,21.509 38.543,27.449 31.241,27.449 Z M31.241,9.794 C28.806,9.794 26.827,11.772 26.827,14.208 C26.827,16.643 28.805,18.622 31.241,18.622 C33.677,18.622 35.655,16.644 35.655,14.208 C35.655,11.773 33.677,9.794 31.241,9.794 Z" id="Shape"></path>
                <path d="M48.897,27.449 C41.595,27.449 35.656,21.509 35.656,14.208 C35.656,6.906 41.596,0.967 48.897,0.967 C56.199,0.967 62.138,6.907 62.138,14.208 C62.138,21.509 56.198,27.449 48.897,27.449 Z M48.897,9.794 C46.462,9.794 44.483,11.772 44.483,14.208 C44.483,16.643 46.461,18.622 48.897,18.622 C51.332,18.622 53.311,16.644 53.311,14.208 C53.31,11.773 51.332,9.794 48.897,9.794 Z" id="Shape"></path>
                <path d="M66.552,36.277 C59.25,36.277 53.311,30.337 53.311,23.036 C53.311,15.734 59.251,9.795 66.552,9.795 C73.854,9.795 79.793,15.735 79.793,23.036 C79.793,30.337 73.853,36.277 66.552,36.277 Z M66.552,18.622 C64.117,18.622 62.138,20.6 62.138,23.036 C62.138,25.471 64.116,27.45 66.552,27.45 C68.987,27.45 70.966,25.472 70.966,23.036 C70.966,20.6 68.987,18.622 66.552,18.622 Z" id="Shape"></path>
                <path d="M13.586,36.277 C6.284,36.277 0.345,30.337 0.345,23.036 C0.345,15.734 6.285,9.795 13.586,9.795 C20.888,9.795 26.827,15.735 26.827,23.036 C26.828,30.337 20.888,36.277 13.586,36.277 Z M13.586,18.622 C11.151,18.622 9.172,20.6 9.172,23.036 C9.172,25.471 11.15,27.45 13.586,27.45 C16.022,27.45 18,25.471 18,23.035 C18,20.6 16.022,18.622 13.586,18.622 Z" id="Shape"></path>
            </g>
            <path d="M176.552,203.311 L176.552,207.725 C176.552,210.159 174.572,212.139 172.138,212.139 C169.704,212.139 167.724,210.159 167.724,207.725 L167.724,203.311 L176.552,203.311 L176.552,203.311 Z M185.379,194.484 L158.896,194.484 L158.896,207.725 C158.896,215.027 164.836,220.966 172.137,220.966 C179.439,220.966 185.378,215.026 185.378,207.725 L185.378,194.484 L185.379,194.484 Z" id="Shape" fill="#FAB446"></path>
            <path d="M172.138,176.829 L172.138,176.829 C167.263,176.829 163.31,172.876 163.31,168.001 L163.31,159.173 C163.31,154.298 167.263,150.345 172.138,150.345 L172.138,150.345 C177.013,150.345 180.966,154.298 180.966,159.173 L180.966,168.001 C180.966,172.876 177.013,176.829 172.138,176.829 Z" id="Shape" fill="#FFA0D2"></path>
            <circle id="Oval" fill="#5064AA" cx="150.07" cy="185.651" r="13.241"></circle>
            <rect id="Rectangle-path" fill="#FAB446" x="145.66" y="88.551" width="8.828" height="26.483"></rect>
            <path d="M123.586,132.691 L114.758,123.863 L119.929,118.692 C127.922,110.699 138.764,106.208 150.069,106.208 L150.069,106.208 C161.374,106.208 172.215,110.699 180.209,118.692 L185.38,123.863 L176.552,132.691 L123.586,132.691 Z" id="Shape" fill="#C8414B"></path>
            <g id="Group" transform="translate(127.000000, 119.000000)" fill="#FFD250">
                <circle id="Oval" cx="23.07" cy="4.861" r="4.414"></circle>
                <circle id="Oval" cx="5.41" cy="4.861" r="4.414"></circle>
                <circle id="Oval" cx="40.72" cy="4.861" r="4.414"></circle>
            </g>
            <g id="Group" transform="translate(70.000000, 168.000000)" fill="#C8414B">
                <rect id="Rectangle-path" x="0.62" y="0.001" width="44.14" height="8.828"></rect>
                <polygon id="Shape" points="0.621 35.311 27.103 26.484 27.103 17.656 0.621 26.484"></polygon>
            </g>
        </g>
    </g>
</svg>