<svg xmlns="http://www.w3.org/2000/svg" xmlns:xlink="http://www.w3.org/1999/xlink" version="1.1" x="0px" y="0px" viewBox="0 0 100 125" enable-background="new 0 0 100 100" xml:space="preserve" fill="white"><path d="M92.962,48.855C88.056,34.673,69.586,23.978,50,23.978S11.944,34.673,7.038,48.855c-0.632,1.827,0.337,3.82,2.163,4.452  c1.83,0.632,3.82-0.338,4.452-2.163c2.481-7.172,9.494-13.242,18.483-16.796c-1.738,3.021-2.749,6.513-2.749,10.241  c0,11.365,9.247,20.612,20.612,20.612s20.612-9.247,20.612-20.612c0-3.729-1.011-7.22-2.749-10.241  c8.989,3.554,16.002,9.624,18.483,16.796c0.501,1.447,1.856,2.356,3.308,2.356c0.379,0,0.766-0.063,1.145-0.193  C92.625,52.676,93.594,50.683,92.962,48.855z M63.612,44.59c0,7.506-6.106,13.612-13.612,13.612S36.388,52.096,36.388,44.59  S42.494,30.978,50,30.978S63.612,37.084,63.612,44.59z"/></svg>