<?xml version="1.0" encoding="UTF-8"?>
<svg width="298px" height="602px" viewBox="0 0 298 602" version="1.1" xmlns="http://www.w3.org/2000/svg" xmlns:xlink="http://www.w3.org/1999/xlink">
    <!-- Generator: Sketch 46 (44423) - http://www.bohemiancoding.com/sketch -->
    <title>iphone</title>
    <desc>Created with Sketch.</desc>
    <defs>
        <rect id="path-1" x="0" y="0" width="260" height="462" rx="3"></rect>
    </defs>
    <g id="Page-1" stroke="none" stroke-width="1" fill="none" fill-rule="evenodd">
        <g id="iphone">
            <g id="Phone">
                <g id="btn-1" transform="translate(0.000000, 76.000000)">
                    <g id="path-2-link" fill="#FFFFFF">
                        <rect id="path-2" x="0" y="0" width="6" height="25" rx="3"></rect>
                    </g>
                    <rect id="Rectangle-path" stroke="#E0E0E0" x="0.5" y="0.5" width="5" height="24" rx="2.5"></rect>
                </g>
                <g id="btn-2" transform="translate(0.000000, 129.000000)">
                    <g id="path-3-link" fill="#FFFFFF">
                        <rect id="path-3" x="0" y="0" width="6" height="44" rx="3"></rect>
                    </g>
                    <rect id="Rectangle-path" stroke="#E0E0E0" x="0.5" y="0.5" width="5" height="43" rx="2.5"></rect>
                </g>
                <g id="btn-3" transform="translate(0.000000, 184.000000)">
                    <g id="path-4-link" fill="#FFFFFF">
                        <rect id="path-4" x="0" y="0" width="6" height="44" rx="3"></rect>
                    </g>
                    <rect id="Rectangle-path" stroke="#E0E0E0" x="0.5" y="0.5" width="5" height="43" rx="2.5"></rect>
                </g>
                <g id="btn-4" transform="translate(292.000000, 129.000000)">
                    <g id="path-5-link" fill="#FFFFFF">
                        <rect id="path-5" x="0" y="0" width="6" height="44" rx="3"></rect>
                    </g>
                    <rect id="Rectangle-path" stroke="#E0E0E0" x="0.5" y="0.5" width="5" height="43" rx="2.5"></rect>
                </g>
                <g id="base" transform="translate(3.000000, 0.000000)">
                    <g id="path-6-link" fill="#FFFFFF">
                        <rect id="path-6" x="0" y="0" width="292" height="602" rx="40"></rect>
                    </g>
                    <rect id="Rectangle-path" stroke="#E0E0E0" x="0.5" y="0.5" width="291" height="601" rx="40"></rect>
                </g>
                <g id="btn-5" transform="translate(127.000000, 540.000000)">
                    <g id="path-7-link" fill="#F9F9F9">
                        <rect id="path-7" x="0" y="0" width="45" height="45" rx="22.5"></rect>
                    </g>
                    <rect id="Rectangle-path" stroke="#E0E0E0" x="0.5" y="0.5" width="44" height="44" rx="22"></rect>
                </g>
                <g id="sen" transform="translate(146.000000, 15.000000)">
                    <g id="path-8-link" fill="#E0E0E0">
                        <circle id="path-8" cx="4" cy="4" r="4"></circle>
                    </g>
                    <circle id="Oval" stroke="#F9F9F9" cx="4" cy="4" r="3.5"></circle>
                </g>
                <g id="cam" transform="translate(98.000000, 33.000000)">
                    <g id="path-9-link" fill="#E0E0E0">
                        <circle id="path-9" cx="5" cy="5" r="5"></circle>
                    </g>
                    <circle id="Oval" stroke="#F9F9F9" cx="5" cy="5" r="4.5"></circle>
                </g>
                <g id="mic" transform="translate(126.000000, 35.000000)">
                    <g id="path-10-link" fill="#E0E0E0">
                        <rect id="path-10" x="0" y="0" width="47" height="6" rx="3"></rect>
                    </g>
                    <rect id="Rectangle-path" stroke="#F9F9F9" x="0.5" y="0.5" width="46" height="5" rx="2.5"></rect>
                </g>
            </g>
            <g id="Your-screen" transform="translate(18.000000, 56.000000)">
                <g id="path-11-link" transform="translate(1.000000, 1.000000)" fill="#FFFFFF">
                    <rect id="path-11" x="0" y="0" width="260" height="462" rx="3"></rect>
                </g>
                <rect id="Rectangle-path" stroke="#E0E0E0" stroke-width="2" x="0" y="0" width="262" height="464" rx="3"></rect>
            </g>
            <g id="9:42-Clipped" transform="translate(19.000000, 57.000000)">
                <mask id="mask-2" fill="white">
                    <use xlink:href="#path-1"></use>
                </mask>
                <g id="path-11"></g>
            </g>
        </g>
    </g>
</svg>