<?xml version="1.0" encoding="UTF-8"?>
<svg width="80px" height="80px" viewBox="0 0 80 80" version="1.1" xmlns="http://www.w3.org/2000/svg" xmlns:xlink="http://www.w3.org/1999/xlink">
    <!-- Generator: Sketch 46 (44423) - http://www.bohemiancoding.com/sketch -->
    <title>tick</title>
    <desc>Created with Sketch.</desc>
    <defs></defs>
    <g id="Page-1" stroke="none" stroke-width="1" fill="none" fill-rule="evenodd">
        <g id="tick" fill-rule="nonzero" fill="#FFFFFF">
            <path d="M64.637,22.693 C64.033,22.125 63.086,22.152 62.516,22.756 L31.067,56.11 L13.408,39.896 C12.799,39.336 11.848,39.376 11.289,39.986 C10.728,40.596 10.768,41.545 11.379,42.106 L30.129,59.322 C30.417,59.586 30.78,59.717 31.144,59.717 C31.542,59.717 31.941,59.559 32.236,59.246 L64.7,24.814 C65.268,24.21 65.239,23.261 64.637,22.693 Z M40,0.5 C18.22,0.5 0.5,18.22 0.5,40 C0.5,61.78 18.22,79.5 40,79.5 C61.78,79.5 79.5,61.78 79.5,40 C79.5,18.22 61.78,0.5 40,0.5 Z M40,76.5 C19.874,76.5 3.5,60.126 3.5,40 C3.5,19.874 19.874,3.5 40,3.5 C60.126,3.5 76.5,19.874 76.5,40 C76.5,60.126 60.126,76.5 40,76.5 Z" id="Shape"></path>
        </g>
    </g>
</svg>