<?xml version="1.0" encoding="UTF-8"?>
<svg width="512px" height="336px" viewBox="0 0 512 336" version="1.1" xmlns="http://www.w3.org/2000/svg" xmlns:xlink="http://www.w3.org/1999/xlink">
    <!-- Generator: Sketch 44.1 (41455) - http://www.bohemiancoding.com/sketch -->
    <title>ch</title>
    <desc>Created with Sketch.</desc>
    <defs></defs>
    <g id="Page-1" stroke="none" stroke-width="1" fill="none" fill-rule="evenodd">
        <g id="ch" fill-rule="nonzero">
            <path d="M503.172,335.725 L8.828,335.725 C3.953,335.725 0,331.772 0,326.897 L0,9.104 C0,4.229 3.953,0.276 8.828,0.276 L503.173,0.276 C508.048,0.276 512.001,4.229 512.001,9.104 L512.001,326.897 C512,331.773 508.047,335.725 503.172,335.725 Z" id="Shape" fill="#FF4B55"></path>
            <g id="Group" transform="translate(39.000000, 25.000000)" fill="#FFE15A">
                <path d="M46.007,27.733 L54.423,52.967 L81.023,53.173 C84.467,53.199 85.895,57.595 83.124,59.64 L61.726,75.441 L69.749,100.803 C70.787,104.087 67.049,106.802 64.247,104.8 L42.607,89.331 L20.967,104.799 C18.165,106.802 14.427,104.085 15.465,100.802 L23.488,75.44 L2.09,59.64 C-0.681,57.594 0.747,53.199 4.191,53.173 L30.791,52.967 L39.207,27.733 C40.297,24.465 44.918,24.465 46.007,27.733 Z" id="Shape"></path>
                <path d="M142.599,33.951 L148.634,42.181 L158.373,39.135 C159.634,38.741 160.671,40.179 159.899,41.25 L153.937,49.531 L159.843,57.852 C160.608,58.929 159.561,60.36 158.303,59.957 L148.584,56.846 L142.495,65.035 C141.707,66.095 140.022,65.541 140.017,64.221 L139.972,54.016 L130.302,50.755 C129.051,50.332 129.056,48.56 130.311,48.146 L140.001,44.95 L140.115,34.746 C140.129,33.427 141.818,32.886 142.599,33.951 Z" id="Shape"></path>
                <path d="M105.857,9.421 L116.002,10.523 L120.33,1.282 C120.891,0.086 122.651,0.291 122.921,1.584 L125.007,11.572 L135.133,12.832 C136.444,12.995 136.793,14.733 135.646,15.39 L126.791,20.46 L128.722,30.48 C128.972,31.778 127.427,32.646 126.448,31.759 L118.889,24.904 L109.957,29.836 C108.801,30.475 107.496,29.273 108.038,28.068 L112.221,18.76 L104.769,11.788 C103.805,10.89 104.544,9.279 105.857,9.421 Z" id="Shape"></path>
                <path d="M121.895,108.314 L115.86,116.544 L106.121,113.498 C104.86,113.104 103.823,114.542 104.595,115.613 L110.557,123.894 L104.651,132.215 C103.886,133.292 104.933,134.723 106.191,134.32 L115.91,131.209 L121.999,139.398 C122.787,140.458 124.472,139.904 124.477,138.584 L124.522,128.379 L134.192,125.118 C135.444,124.695 135.438,122.923 134.183,122.509 L124.493,119.313 L124.379,109.109 C124.363,107.791 122.676,107.248 121.895,108.314 Z" id="Shape"></path>
                <path d="M158.635,85.263 L148.49,86.365 L144.162,77.124 C143.601,75.928 141.841,76.133 141.571,77.426 L139.484,87.414 L129.358,88.674 C128.047,88.837 127.698,90.575 128.845,91.232 L137.7,96.302 L135.769,106.322 C135.519,107.62 137.064,108.488 138.043,107.601 L145.602,100.746 L154.534,105.678 C155.69,106.317 156.995,105.115 156.453,103.91 L152.27,94.602 L159.722,87.63 C160.689,86.732 159.95,85.121 158.635,85.263 Z" id="Shape"></path>
            </g>
        </g>
    </g>
</svg>