<?xml version="1.0" encoding="UTF-8"?>
<svg width="460px" height="459px" viewBox="0 0 460 459" version="1.1" xmlns="http://www.w3.org/2000/svg" xmlns:xlink="http://www.w3.org/1999/xlink">
    <!-- Generator: Sketch 48.2 (47327) - http://www.bohemiancoding.com/sketch -->
    <title>socialis</title>
    <desc>Created with Sketch.</desc>
    <defs></defs>
    <g id="Page-1" stroke="none" stroke-width="1" fill="none" fill-rule="evenodd">
        <g id="socialis" fill="#000000" fill-rule="nonzero">
            <g id="Group" transform="translate(230.400000, 229.500000) scale(-1, 1) rotate(-180.000000) translate(-230.400000, -229.500000) translate(0.900000, 0.200000)">
                <path d="M204.1,457.8 C170.6,453.7 137.4,442.5 111.1,426.3 C68.8,400.2 37.4,364.2 18.7,320.5 C-23.5,221.7 7.6,107 93.9,43.8 C127,19.5 164.8,5.1 206.6,0.8 C221.2,-0.7 251.5,-8.89045781e-17 265.6,2.2 C339.8,14 403.5,61 436.1,128.2 C446.1,148.8 451.9,166.3 456.3,189.8 C459.2,205.4 459.9,240.9 457.7,258.6 C449.9,319.4 417.4,375.8 369.1,412.2 C338.6,435.2 306.5,449.1 268.1,456 C255.1,458.3 217.4,459.4 204.1,457.8 Z M243.533228,370.042407 C271.221188,367.116037 288.441749,359.462455 304.536783,343.254868 C318.380764,329.298335 326.259452,313.090748 327.835189,294.969766 L328.510505,286.865972 L302.173177,287.091078 L275.948401,287.428736 L275.04798,292.493607 C273.134584,303.748875 265.368449,314.216275 255.126154,319.506251 C240.494305,326.934729 208.979553,327.159834 195.02302,319.843909 C179.94096,312.077774 174.538431,295.307424 182.529672,281.575996 C187.144332,273.584756 191.083676,272.121571 237.680488,260.528644 C261.091446,254.675904 283.151773,248.823165 286.528353,247.697638 C312.753129,238.468318 328.172847,224.174126 334.475798,203.014222 C337.402167,193.334691 337.064509,171.386917 333.913034,159.343779 C325.133925,126.028184 297.896175,105.543596 253.775522,99.3531979 C231.152432,96.08917 200.988312,98.7904345 180.728829,105.881254 C164.633795,111.508888 150.452156,120.625656 142.123258,130.755397 C132.106069,143.02364 124.902697,161.48228 124.227381,177.127104 L123.889723,185.005792 L149.551735,185.34345 C169.47356,185.568555 175.213747,185.34345 175.551405,184.217923 C175.776511,183.430054 176.564379,179.940921 177.239696,176.451788 C180.053513,162.945465 190.183254,151.802749 203.914682,147.300642 C225.074587,140.209823 257.939971,142.911087 272.57182,153.040829 C284.727511,161.369728 287.991538,180.503684 279.099876,191.083637 C272.684373,198.737219 262.667184,202.1138 205.152762,215.95778 C169.698666,224.511785 154.729158,231.377498 143.136232,244.208505 C132.781385,255.688878 127.829067,270.545833 127.829067,290.917869 C127.829067,304.649297 130.417778,315.67946 136.383071,327.497492 C142.123258,339.090419 155.517027,352.259083 167.897823,358.674586 C187.707095,368.804328 215.95782,373.08133 243.533228,370.042407 Z" id="Shape"></path>
            </g>
        </g>
    </g>
</svg>